# xmcd CD database file
#
# Track frame offsets:
#	150
#	16269
#	33948
#	51140
#	65634
#	93804
#	118802
#	137817
#	157221
#
# Disc length: 2511 seconds
#
# Revision: 0
# Processed by: cddbd v1.5.2PL0 Copyright (c) Steve Scherf et al.
# Submitted via: CDex 1.51
#
DISCID=7709cd09
DTITLE=Ashley Hamner - Trapped Beneath the Stars
DYEAR=2008
DGENRE=Jazz
TTITLE0=Lilies
TTITLE1=Trapped Beneath the Stars
TTITLE2=While I Wait
TTITLE3=Dear God
TTITLE4=Of Tea and Theology
TTITLE5=Broken
TTITLE6=Someday
TTITLE7=Your Love
TTITLE8=One Night
EXTD=YEAR: 2008
EXTT0=
EXTT1=
EXTT2=
EXTT3=
EXTT4=
EXTT5=
EXTT6=
EXTT7=
EXTT8=
PLAYORDER=
